{
	"asset":{
		"generator":"Khronos glTF Blender I/O v3.6.27",
		"version":"2.0"
	},
	"extensionsUsed":[
		"KHR_materials_specular",
		"KHR_materials_ior",
		"KHR_materials_emissive_strength"
	],
	"scene":0,
	"scenes":[
		{
			"name":"Scene",
			"nodes":[
				0
			]
		}
	],
	"nodes":[
		{
			"mesh":0,
			"name":"Cylinder.012",
			"rotation":[
				-1,
				0,
				0,
				4.371138828673793e-08
			],
			"scale":[
				4.080000400543213,
				4.080000400543213,
				1.399999976158142
			]
		}
	],
	"materials":[
		{
			"doubleSided":true,
			"extensions":{
				"KHR_materials_specular":{
					"specularColorFactor":[
						0,
						0,
						0
					]
				},
				"KHR_materials_ior":{
					"ior":1.4500000476837158
				}
			},
			"name":"Matte.001",
			"pbrMetallicRoughness":{
				"baseColorFactor":[
					0.01268894411623478,
					0.01594698056578636,
					0.018848078325390816,
					1
				],
				"metallicFactor":0
			}
		},
		{
			"doubleSided":true,
			"emissiveFactor":[
				1,
				1,
				1
			],
			"emissiveTexture":{
				"index":0
			},
			"name":"Pink_Emit",
			"pbrMetallicRoughness":{
				"baseColorTexture":{
					"index":1
				},
				"metallicFactor":0,
				"roughnessFactor":0.5
			}
		},
		{
			"doubleSided":true,
			"emissiveFactor":[
				1,
				1,
				1
			],
			"emissiveTexture":{
				"index":2
			},
			"extensions":{
				"KHR_materials_emissive_strength":{
					"emissiveStrength":3
				},
				"KHR_materials_specular":{
					"specularColorFactor":[
						0.9242692897219706,
						0.9242692897219706,
						0.9242692897219706
					]
				},
				"KHR_materials_ior":{
					"ior":1.4500000476837158
				}
			},
			"name":"Material.001",
			"pbrMetallicRoughness":{
				"baseColorFactor":[
					0,
					0,
					0,
					1
				],
				"metallicFactor":0,
				"roughnessFactor":0.9488189220428467
			}
		}
	],
	"meshes":[
		{
			"name":"Cylinder.013",
			"primitives":[
				{
					"attributes":{
						"POSITION":0,
						"NORMAL":1,
						"TEXCOORD_0":2
					},
					"indices":3,
					"material":0
				},
				{
					"attributes":{
						"POSITION":4,
						"NORMAL":5,
						"TEXCOORD_0":6
					},
					"indices":7,
					"material":1
				},
				{
					"attributes":{
						"POSITION":8,
						"NORMAL":9,
						"TEXCOORD_0":10
					},
					"indices":11,
					"material":2
				}
			]
		}
	],
	"textures":[
		{
			"sampler":0,
			"source":0
		},
		{
			"sampler":0,
			"source":0
		},
		{
			"sampler":0,
			"source":1
		}
	],
	"images":[
		{
			"bufferView":8,
			"mimeType":"image/jpeg",
			"name":"clr"
		},
		{
			"bufferView":13,
			"mimeType":"image/png",
			"name":"pattern-makuhari_black"
		}
	],
	"accessors":[
		{
			"bufferView":0,
			"componentType":5126,
			"count":1703,
			"max":[
				3.4678430557250977,
				1.5038142204284668,
				1.142857313156128
			],
			"min":[
				-3.4678430557250977,
				-2.389401435852051,
				-0.3783634305000305
			],
			"type":"VEC3"
		},
		{
			"bufferView":1,
			"componentType":5126,
			"count":1703,
			"type":"VEC3"
		},
		{
			"bufferView":2,
			"componentType":5126,
			"count":1703,
			"type":"VEC2"
		},
		{
			"bufferView":3,
			"componentType":5123,
			"count":7836,
			"type":"SCALAR"
		},
		{
			"bufferView":4,
			"componentType":5126,
			"count":1080,
			"max":[
				3.3682265281677246,
				1.4256258010864258,
				1.142857313156128
			],
			"min":[
				-3.3682267665863037,
				-2.289785146713257,
				-0.6428576707839966
			],
			"type":"VEC3"
		},
		{
			"bufferView":5,
			"componentType":5126,
			"count":1080,
			"type":"VEC3"
		},
		{
			"bufferView":6,
			"componentType":5126,
			"count":1080,
			"type":"VEC2"
		},
		{
			"bufferView":7,
			"componentType":5123,
			"count":2460,
			"type":"SCALAR"
		},
		{
			"bufferView":9,
			"componentType":5126,
			"count":472,
			"max":[
				6.855902194976807,
				3.647683620452881,
				1.2679187059402466
			],
			"min":[
				-6.855902194976807,
				-4.922194004058838,
				-0.6428579092025757
			],
			"type":"VEC3"
		},
		{
			"bufferView":10,
			"componentType":5126,
			"count":472,
			"type":"VEC3"
		},
		{
			"bufferView":11,
			"componentType":5126,
			"count":472,
			"type":"VEC2"
		},
		{
			"bufferView":12,
			"componentType":5123,
			"count":1212,
			"type":"SCALAR"
		}
	],
	"bufferViews":[
		{
			"buffer":0,
			"byteLength":20436,
			"byteOffset":0,
			"target":34962
		},
		{
			"buffer":0,
			"byteLength":20436,
			"byteOffset":20436,
			"target":34962
		},
		{
			"buffer":0,
			"byteLength":13624,
			"byteOffset":40872,
			"target":34962
		},
		{
			"buffer":0,
			"byteLength":15672,
			"byteOffset":54496,
			"target":34963
		},
		{
			"buffer":0,
			"byteLength":12960,
			"byteOffset":70168,
			"target":34962
		},
		{
			"buffer":0,
			"byteLength":12960,
			"byteOffset":83128,
			"target":34962
		},
		{
			"buffer":0,
			"byteLength":8640,
			"byteOffset":96088,
			"target":34962
		},
		{
			"buffer":0,
			"byteLength":4920,
			"byteOffset":104728,
			"target":34963
		},
		{
			"buffer":0,
			"byteLength":9191,
			"byteOffset":109648
		},
		{
			"buffer":0,
			"byteLength":5664,
			"byteOffset":118840,
			"target":34962
		},
		{
			"buffer":0,
			"byteLength":5664,
			"byteOffset":124504,
			"target":34962
		},
		{
			"buffer":0,
			"byteLength":3776,
			"byteOffset":130168,
			"target":34962
		},
		{
			"buffer":0,
			"byteLength":2424,
			"byteOffset":133944,
			"target":34963
		},
		{
			"buffer":0,
			"byteLength":17726,
			"byteOffset":136368
		}
	],
	"samplers":[
		{
			"magFilter":9729,
			"minFilter":9987
		}
	],
	"buffers":[
		{
			"byteLength":154096,
			"uri":"data:application/octet-stream;base64,"
		}
	]
}
