{
	"asset":{
		"generator":"Khronos glTF Blender I/O v3.6.27",
		"version":"2.0"
	},
	"extensionsUsed":[
		"KHR_materials_specular",
		"KHR_materials_ior"
	],
	"scene":0,
	"scenes":[
		{
			"name":"Scene",
			"nodes":[
				0
			]
		}
	],
	"nodes":[
		{
			"mesh":0,
			"name":"MakuhariChan.002"
		}
	],
	"materials":[
		{
			"doubleSided":true,
			"extensions":{
				"KHR_materials_specular":{
					"specularColorFactor":[
						0,
						0,
						0
					]
				},
				"KHR_materials_ior":{
					"ior":1.4500000476837158
				}
			},
			"name":"Front_Tex",
			"pbrMetallicRoughness":{
				"baseColorTexture":{
					"index":0
				},
				"metallicFactor":0
			}
		},
		{
			"doubleSided":true,
			"extensions":{
				"KHR_materials_specular":{
					"specularColorFactor":[
						0,
						0,
						0
					]
				},
				"KHR_materials_ior":{
					"ior":1.4500000476837158
				}
			},
			"name":"Back_Tex",
			"pbrMetallicRoughness":{
				"baseColorTexture":{
					"index":1
				},
				"metallicFactor":0
			}
		},
		{
			"doubleSided":true,
			"extensions":{
				"KHR_materials_specular":{
					"specularColorFactor":[
						0,
						0,
						0
					]
				},
				"KHR_materials_ior":{
					"ior":1.4500000476837158
				}
			},
			"name":"Skin",
			"pbrMetallicRoughness":{
				"baseColorFactor":[
					1,
					0.752501368522644,
					0.6100000143051147,
					1
				],
				"metallicFactor":0
			}
		},
		{
			"doubleSided":true,
			"extensions":{
				"KHR_materials_specular":{
					"specularColorFactor":[
						0.7437439765049124,
						0.7437439765049124,
						0.7437439765049124
					]
				},
				"KHR_materials_ior":{
					"ior":1.4500000476837158
				}
			},
			"name":"Back",
			"pbrMetallicRoughness":{
				"baseColorTexture":{
					"index":2
				},
				"roughnessFactor":0.7636363506317139
			}
		},
		{
			"doubleSided":true,
			"extensions":{
				"KHR_materials_specular":{
					"specularColorFactor":[
						0.150904572894563,
						0.150904572894563,
						0.150904572894563
					]
				},
				"KHR_materials_ior":{
					"ior":1.4500000476837158
				}
			},
			"name":"Front",
			"pbrMetallicRoughness":{
				"baseColorTexture":{
					"index":3
				},
				"metallicFactor":0
			}
		},
		{
			"doubleSided":true,
			"extensions":{
				"KHR_materials_specular":{
					"specularColorFactor":[
						0,
						0,
						0
					]
				},
				"KHR_materials_ior":{
					"ior":1.4500000476837158
				}
			},
			"name":"Right",
			"pbrMetallicRoughness":{
				"baseColorTexture":{
					"index":4
				},
				"metallicFactor":0
			}
		},
		{
			"doubleSided":true,
			"name":"TwinTail_Back_Tex",
			"pbrMetallicRoughness":{
				"baseColorTexture":{
					"index":5
				},
				"metallicFactor":0,
				"roughnessFactor":0.5
			}
		},
		{
			"doubleSided":true,
			"name":"Headphones_Tex",
			"pbrMetallicRoughness":{
				"baseColorTexture":{
					"index":6
				},
				"metallicFactor":0,
				"roughnessFactor":0.5
			}
		},
		{
			"doubleSided":true,
			"name":"Headphones_Strap_Tex",
			"pbrMetallicRoughness":{
				"baseColorTexture":{
					"index":7
				},
				"metallicFactor":0,
				"roughnessFactor":0.5
			}
		}
	],
	"meshes":[
		{
			"name":"Cube.006",
			"primitives":[
				{
					"attributes":{
						"POSITION":0,
						"NORMAL":1,
						"TEXCOORD_0":2
					},
					"indices":3,
					"material":0
				},
				{
					"attributes":{
						"POSITION":4,
						"NORMAL":5,
						"TEXCOORD_0":6
					},
					"indices":7,
					"material":1
				},
				{
					"attributes":{
						"POSITION":8,
						"NORMAL":9,
						"TEXCOORD_0":10
					},
					"indices":11,
					"material":2
				},
				{
					"attributes":{
						"POSITION":12,
						"NORMAL":13,
						"TEXCOORD_0":14
					},
					"indices":15,
					"material":3
				},
				{
					"attributes":{
						"POSITION":16,
						"NORMAL":17,
						"TEXCOORD_0":18
					},
					"indices":19,
					"material":4
				},
				{
					"attributes":{
						"POSITION":20,
						"NORMAL":21,
						"TEXCOORD_0":22
					},
					"indices":23,
					"material":5
				},
				{
					"attributes":{
						"POSITION":24,
						"NORMAL":25,
						"TEXCOORD_0":26
					},
					"indices":27,
					"material":6
				},
				{
					"attributes":{
						"POSITION":28,
						"NORMAL":29,
						"TEXCOORD_0":30
					},
					"indices":31,
					"material":7
				},
				{
					"attributes":{
						"POSITION":32,
						"NORMAL":33,
						"TEXCOORD_0":34
					},
					"indices":35,
					"material":8
				}
			]
		}
	],
	"textures":[
		{
			"sampler":0,
			"source":0
		},
		{
			"sampler":0,
			"source":1
		},
		{
			"sampler":0,
			"source":2
		},
		{
			"sampler":0,
			"source":3
		},
		{
			"sampler":0,
			"source":4
		},
		{
			"sampler":0,
			"source":4
		},
		{
			"sampler":0,
			"source":5
		},
		{
			"sampler":0,
			"source":6
		}
	],
	"images":[
		{
			"bufferView":4,
			"mimeType":"image/jpeg",
			"name":"Front_Tex_JPG"
		},
		{
			"bufferView":9,
			"mimeType":"image/jpeg",
			"name":"Back_Tex_JPG"
		},
		{
			"bufferView":18,
			"mimeType":"image/jpeg",
			"name":"Back_JPG"
		},
		{
			"bufferView":23,
			"mimeType":"image/jpeg",
			"name":"Front_JPG"
		},
		{
			"bufferView":28,
			"mimeType":"image/jpeg",
			"name":"Right_JPG"
		},
		{
			"bufferView":37,
			"mimeType":"image/jpeg",
			"name":"Headphone_JPG"
		},
		{
			"bufferView":42,
			"mimeType":"image/jpeg",
			"name":"Headphone_Strap_JPG"
		}
	],
	"accessors":[
		{
			"bufferView":0,
			"componentType":5126,
			"count":2945,
			"max":[
				0.9407646059989929,
				0.842011570930481,
				1.053870677947998
			],
			"min":[
				-0.9407643675804138,
				-0.3284448981285095,
				-1.7972266674041748
			],
			"type":"VEC3"
		},
		{
			"bufferView":1,
			"componentType":5126,
			"count":2945,
			"type":"VEC3"
		},
		{
			"bufferView":2,
			"componentType":5126,
			"count":2945,
			"type":"VEC2"
		},
		{
			"bufferView":3,
			"componentType":5123,
			"count":16338,
			"type":"SCALAR"
		},
		{
			"bufferView":5,
			"componentType":5126,
			"count":878,
			"max":[
				0.6079236268997192,
				0.3679640293121338,
				0.39132416248321533
			],
			"min":[
				-0.6133466958999634,
				-0.48068082332611084,
				-1.3987071514129639
			],
			"type":"VEC3"
		},
		{
			"bufferView":6,
			"componentType":5126,
			"count":878,
			"type":"VEC3"
		},
		{
			"bufferView":7,
			"componentType":5126,
			"count":878,
			"type":"VEC2"
		},
		{
			"bufferView":8,
			"componentType":5123,
			"count":4896,
			"type":"SCALAR"
		},
		{
			"bufferView":10,
			"componentType":5126,
			"count":315,
			"max":[
				0.5447624325752258,
				0.6462455987930298,
				-0.1584240198135376
			],
			"min":[
				-0.5447999835014343,
				-0.16799193620681763,
				-1.3143129348754883
			],
			"type":"VEC3"
		},
		{
			"bufferView":11,
			"componentType":5126,
			"count":315,
			"type":"VEC3"
		},
		{
			"bufferView":12,
			"componentType":5126,
			"count":315,
			"type":"VEC2"
		},
		{
			"bufferView":13,
			"componentType":5123,
			"count":1776,
			"type":"SCALAR"
		},
		{
			"bufferView":14,
			"componentType":5126,
			"count":283,
			"max":[
				0.6311884522438049,
				0.37369006872177124,
				1.0203802585601807
			],
			"min":[
				-0.6311883926391602,
				-0.30565541982650757,
				0.28789496421813965
			],
			"type":"VEC3"
		},
		{
			"bufferView":15,
			"componentType":5126,
			"count":283,
			"type":"VEC3"
		},
		{
			"bufferView":16,
			"componentType":5126,
			"count":283,
			"type":"VEC2"
		},
		{
			"bufferView":17,
			"componentType":5123,
			"count":1296,
			"type":"SCALAR"
		},
		{
			"bufferView":19,
			"componentType":5126,
			"count":286,
			"max":[
				0.3244730234146118,
				0.4773462414741516,
				1.365431785583496
			],
			"min":[
				-0.32447299361228943,
				0.30593323707580566,
				0.5818010568618774
			],
			"type":"VEC3"
		},
		{
			"bufferView":20,
			"componentType":5126,
			"count":286,
			"type":"VEC3"
		},
		{
			"bufferView":21,
			"componentType":5126,
			"count":286,
			"type":"VEC2"
		},
		{
			"bufferView":22,
			"componentType":5123,
			"count":1200,
			"type":"SCALAR"
		},
		{
			"bufferView":24,
			"componentType":5126,
			"count":2472,
			"max":[
				0.8440138101577759,
				0.4756442606449127,
				1.3663556575775146
			],
			"min":[
				-0.8440138101577759,
				0.15360058844089508,
				0.2783029079437256
			],
			"type":"VEC3"
		},
		{
			"bufferView":25,
			"componentType":5126,
			"count":2472,
			"type":"VEC3"
		},
		{
			"bufferView":26,
			"componentType":5126,
			"count":2472,
			"type":"VEC2"
		},
		{
			"bufferView":27,
			"componentType":5123,
			"count":13824,
			"type":"SCALAR"
		},
		{
			"bufferView":29,
			"componentType":5126,
			"count":1476,
			"max":[
				1.4190857410430908,
				0.0032090842723846436,
				1.2882957458496094
			],
			"min":[
				-1.4190852642059326,
				-1.1692733764648438,
				-1.1475646495819092
			],
			"type":"VEC3"
		},
		{
			"bufferView":30,
			"componentType":5126,
			"count":1476,
			"type":"VEC3"
		},
		{
			"bufferView":31,
			"componentType":5126,
			"count":1476,
			"type":"VEC2"
		},
		{
			"bufferView":32,
			"componentType":5123,
			"count":8832,
			"type":"SCALAR"
		},
		{
			"bufferView":33,
			"componentType":5126,
			"count":296,
			"max":[
				0.7759477496147156,
				0.492100328207016,
				-0.3350381851196289
			],
			"min":[
				-0.7759475111961365,
				0.010320186614990234,
				-0.8222804069519043
			],
			"type":"VEC3"
		},
		{
			"bufferView":34,
			"componentType":5126,
			"count":296,
			"type":"VEC3"
		},
		{
			"bufferView":35,
			"componentType":5126,
			"count":296,
			"type":"VEC2"
		},
		{
			"bufferView":36,
			"componentType":5123,
			"count":1536,
			"type":"SCALAR"
		},
		{
			"bufferView":38,
			"componentType":5126,
			"count":330,
			"max":[
				0.8613204956054688,
				0.29921358823776245,
				-0.6679420471191406
			],
			"min":[
				-0.8613200187683105,
				-0.11926448345184326,
				-1.4505648612976074
			],
			"type":"VEC3"
		},
		{
			"bufferView":39,
			"componentType":5126,
			"count":330,
			"type":"VEC3"
		},
		{
			"bufferView":40,
			"componentType":5126,
			"count":330,
			"type":"VEC2"
		},
		{
			"bufferView":41,
			"componentType":5123,
			"count":1536,
			"type":"SCALAR"
		}
	],
	"bufferViews":[
		{
			"buffer":0,
			"byteLength":35340,
			"byteOffset":0,
			"target":34962
		},
		{
			"buffer":0,
			"byteLength":35340,
			"byteOffset":35340,
			"target":34962
		},
		{
			"buffer":0,
			"byteLength":23560,
			"byteOffset":70680,
			"target":34962
		},
		{
			"buffer":0,
			"byteLength":32676,
			"byteOffset":94240,
			"target":34963
		},
		{
			"buffer":0,
			"byteLength":482506,
			"byteOffset":126916
		},
		{
			"buffer":0,
			"byteLength":10536,
			"byteOffset":609424,
			"target":34962
		},
		{
			"buffer":0,
			"byteLength":10536,
			"byteOffset":619960,
			"target":34962
		},
		{
			"buffer":0,
			"byteLength":7024,
			"byteOffset":630496,
			"target":34962
		},
		{
			"buffer":0,
			"byteLength":9792,
			"byteOffset":637520,
			"target":34963
		},
		{
			"buffer":0,
			"byteLength":454724,
			"byteOffset":647312
		},
		{
			"buffer":0,
			"byteLength":3780,
			"byteOffset":1102036,
			"target":34962
		},
		{
			"buffer":0,
			"byteLength":3780,
			"byteOffset":1105816,
			"target":34962
		},
		{
			"buffer":0,
			"byteLength":2520,
			"byteOffset":1109596,
			"target":34962
		},
		{
			"buffer":0,
			"byteLength":3552,
			"byteOffset":1112116,
			"target":34963
		},
		{
			"buffer":0,
			"byteLength":3396,
			"byteOffset":1115668,
			"target":34962
		},
		{
			"buffer":0,
			"byteLength":3396,
			"byteOffset":1119064,
			"target":34962
		},
		{
			"buffer":0,
			"byteLength":2264,
			"byteOffset":1122460,
			"target":34962
		},
		{
			"buffer":0,
			"byteLength":2592,
			"byteOffset":1124724,
			"target":34963
		},
		{
			"buffer":0,
			"byteLength":390235,
			"byteOffset":1127316
		},
		{
			"buffer":0,
			"byteLength":3432,
			"byteOffset":1517552,
			"target":34962
		},
		{
			"buffer":0,
			"byteLength":3432,
			"byteOffset":1520984,
			"target":34962
		},
		{
			"buffer":0,
			"byteLength":2288,
			"byteOffset":1524416,
			"target":34962
		},
		{
			"buffer":0,
			"byteLength":2400,
			"byteOffset":1526704,
			"target":34963
		},
		{
			"buffer":0,
			"byteLength":390079,
			"byteOffset":1529104
		},
		{
			"buffer":0,
			"byteLength":29664,
			"byteOffset":1919184,
			"target":34962
		},
		{
			"buffer":0,
			"byteLength":29664,
			"byteOffset":1948848,
			"target":34962
		},
		{
			"buffer":0,
			"byteLength":19776,
			"byteOffset":1978512,
			"target":34962
		},
		{
			"buffer":0,
			"byteLength":27648,
			"byteOffset":1998288,
			"target":34963
		},
		{
			"buffer":0,
			"byteLength":350435,
			"byteOffset":2025936
		},
		{
			"buffer":0,
			"byteLength":17712,
			"byteOffset":2376372,
			"target":34962
		},
		{
			"buffer":0,
			"byteLength":17712,
			"byteOffset":2394084,
			"target":34962
		},
		{
			"buffer":0,
			"byteLength":11808,
			"byteOffset":2411796,
			"target":34962
		},
		{
			"buffer":0,
			"byteLength":17664,
			"byteOffset":2423604,
			"target":34963
		},
		{
			"buffer":0,
			"byteLength":3552,
			"byteOffset":2441268,
			"target":34962
		},
		{
			"buffer":0,
			"byteLength":3552,
			"byteOffset":2444820,
			"target":34962
		},
		{
			"buffer":0,
			"byteLength":2368,
			"byteOffset":2448372,
			"target":34962
		},
		{
			"buffer":0,
			"byteLength":3072,
			"byteOffset":2450740,
			"target":34963
		},
		{
			"buffer":0,
			"byteLength":294483,
			"byteOffset":2453812
		},
		{
			"buffer":0,
			"byteLength":3960,
			"byteOffset":2748296,
			"target":34962
		},
		{
			"buffer":0,
			"byteLength":3960,
			"byteOffset":2752256,
			"target":34962
		},
		{
			"buffer":0,
			"byteLength":2640,
			"byteOffset":2756216,
			"target":34962
		},
		{
			"buffer":0,
			"byteLength":3072,
			"byteOffset":2758856,
			"target":34963
		},
		{
			"buffer":0,
			"byteLength":359260,
			"byteOffset":2761928
		}
	],
	"samplers":[
		{
			"magFilter":9729,
			"minFilter":9987
		}
	],
	"buffers":[
		{
			"byteLength":3121188,
			"uri":"data:application/octet-stream;base64,"
		}
	]
}
