{
	"asset":{
		"generator":"Khronos glTF Blender I/O v3.6.27",
		"version":"2.0"
	},
	"extensionsUsed":[
		"KHR_materials_specular",
		"KHR_materials_ior",
		"KHR_materials_emissive_strength"
	],
	"scene":0,
	"scenes":[
		{
			"name":"Scene",
			"nodes":[
				0
			]
		}
	],
	"nodes":[
		{
			"mesh":0,
			"name":"Cube.003",
			"rotation":[
				-1,
				0,
				0,
				4.371138828673793e-08
			]
		}
	],
	"materials":[
		{
			"doubleSided":true,
			"extensions":{
				"KHR_materials_specular":{
					"specularColorFactor":[
						0.9248294357096024,
						0.9248294357096024,
						0.9248294357096024
					]
				},
				"KHR_materials_ior":{
					"ior":1.4500000476837158
				}
			},
			"name":"Matte",
			"pbrMetallicRoughness":{
				"baseColorFactor":[
					0.021978730335831642,
					0.021978730335831642,
					0.021978730335831642,
					1
				],
				"metallicFactor":0,
				"roughnessFactor":0.38999998569488525
			}
		},
		{
			"doubleSided":true,
			"extensions":{
				"KHR_materials_specular":{
					"specularColorFactor":[
						2.371357614441398,
						2.371357614441398,
						2.371357614441398
					]
				},
				"KHR_materials_ior":{
					"ior":1.4500000476837158
				}
			},
			"name":"Gloss",
			"pbrMetallicRoughness":{
				"baseColorFactor":[
					0,
					0,
					0,
					1
				],
				"metallicFactor":0,
				"roughnessFactor":0
			}
		},
		{
			"doubleSided":true,
			"emissiveFactor":[
				1,
				1,
				1
			],
			"emissiveTexture":{
				"index":0
			},
			"name":"Pink_Emit",
			"pbrMetallicRoughness":{
				"baseColorTexture":{
					"index":1
				},
				"metallicFactor":0,
				"roughnessFactor":0.5
			}
		},
		{
			"doubleSided":true,
			"emissiveFactor":[
				1,
				1,
				1
			],
			"emissiveTexture":{
				"index":2
			},
			"extensions":{
				"KHR_materials_emissive_strength":{
					"emissiveStrength":5
				},
				"KHR_materials_specular":{
					"specularColorFactor":[
						2.371357614441398,
						2.371357614441398,
						2.371357614441398
					]
				},
				"KHR_materials_ior":{
					"ior":1.4500000476837158
				}
			},
			"name":"Gloss_M_Note",
			"pbrMetallicRoughness":{
				"baseColorFactor":[
					0,
					0,
					0,
					1
				],
				"metallicFactor":0,
				"roughnessFactor":0
			}
		},
		{
			"doubleSided":true,
			"extensions":{
				"KHR_materials_specular":{
					"specularColorFactor":[
						0.5140430611647385,
						0.5140430611647385,
						0.5140430611647385
					]
				},
				"KHR_materials_ior":{
					"ior":1.4500000476837158
				}
			},
			"name":"Matte_Dark",
			"pbrMetallicRoughness":{
				"baseColorFactor":[
					0,
					0,
					0,
					1
				],
				"metallicFactor":0,
				"roughnessFactor":0.38999998569488525
			}
		}
	],
	"meshes":[
		{
			"name":"Cube.004",
			"primitives":[
				{
					"attributes":{
						"POSITION":0,
						"NORMAL":1,
						"TEXCOORD_0":2
					},
					"indices":3,
					"material":0
				},
				{
					"attributes":{
						"POSITION":4,
						"NORMAL":5,
						"TEXCOORD_0":6
					},
					"indices":7,
					"material":1
				},
				{
					"attributes":{
						"POSITION":8,
						"NORMAL":9,
						"TEXCOORD_0":10
					},
					"indices":11,
					"material":2
				},
				{
					"attributes":{
						"POSITION":12,
						"NORMAL":13,
						"TEXCOORD_0":14
					},
					"indices":15,
					"material":3
				},
				{
					"attributes":{
						"POSITION":16,
						"NORMAL":17,
						"TEXCOORD_0":18
					},
					"indices":19,
					"material":4
				}
			]
		}
	],
	"textures":[
		{
			"sampler":0,
			"source":0
		},
		{
			"sampler":0,
			"source":0
		},
		{
			"sampler":0,
			"source":1
		}
	],
	"images":[
		{
			"bufferView":12,
			"mimeType":"image/jpeg",
			"name":"clr"
		},
		{
			"bufferView":17,
			"mimeType":"image/jpeg",
			"name":"note1"
		}
	],
	"accessors":[
		{
			"bufferView":0,
			"componentType":5126,
			"count":1944,
			"max":[
				7.000490665435791,
				2.779381275177002,
				2.8795626163482666
			],
			"min":[
				-6.999509334564209,
				-3.4141507148742676,
				-2.0310826301574707
			],
			"type":"VEC3"
		},
		{
			"bufferView":1,
			"componentType":5126,
			"count":1944,
			"type":"VEC3"
		},
		{
			"bufferView":2,
			"componentType":5126,
			"count":1944,
			"type":"VEC2"
		},
		{
			"bufferView":3,
			"componentType":5123,
			"count":4236,
			"type":"SCALAR"
		},
		{
			"bufferView":4,
			"componentType":5126,
			"count":162,
			"max":[
				5.544490814208984,
				2.3535499572753906,
				2.6830029487609863
			],
			"min":[
				-5.543509483337402,
				-1.572077751159668,
				-0.04650378227233887
			],
			"type":"VEC3"
		},
		{
			"bufferView":5,
			"componentType":5126,
			"count":162,
			"type":"VEC3"
		},
		{
			"bufferView":6,
			"componentType":5126,
			"count":162,
			"type":"VEC2"
		},
		{
			"bufferView":7,
			"componentType":5123,
			"count":462,
			"type":"SCALAR"
		},
		{
			"bufferView":8,
			"componentType":5126,
			"count":872,
			"max":[
				6.792248725891113,
				2.3535499572753906,
				2.6830029487609863
			],
			"min":[
				-6.791267395019531,
				-3.32511043548584,
				-0.6760835647583008
			],
			"type":"VEC3"
		},
		{
			"bufferView":9,
			"componentType":5126,
			"count":872,
			"type":"VEC3"
		},
		{
			"bufferView":10,
			"componentType":5126,
			"count":872,
			"type":"VEC2"
		},
		{
			"bufferView":11,
			"componentType":5123,
			"count":1392,
			"type":"SCALAR"
		},
		{
			"bufferView":13,
			"componentType":5126,
			"count":32,
			"max":[
				1.105460524559021,
				2.3535494804382324,
				2.4725325107574463
			],
			"min":[
				-1.1044789552688599,
				2.3535494804382324,
				0.2625928521156311
			],
			"type":"VEC3"
		},
		{
			"bufferView":14,
			"componentType":5126,
			"count":32,
			"type":"VEC3"
		},
		{
			"bufferView":15,
			"componentType":5126,
			"count":32,
			"type":"VEC2"
		},
		{
			"bufferView":16,
			"componentType":5123,
			"count":90,
			"type":"SCALAR"
		},
		{
			"bufferView":18,
			"componentType":5126,
			"count":16,
			"max":[
				6.018390655517578,
				-1.6420412063598633,
				0.39664673805236816
			],
			"min":[
				-6.017409324645996,
				-3.000319480895996,
				-0.12006354331970215
			],
			"type":"VEC3"
		},
		{
			"bufferView":19,
			"componentType":5126,
			"count":16,
			"type":"VEC3"
		},
		{
			"bufferView":20,
			"componentType":5126,
			"count":16,
			"type":"VEC2"
		},
		{
			"bufferView":21,
			"componentType":5123,
			"count":24,
			"type":"SCALAR"
		}
	],
	"bufferViews":[
		{
			"buffer":0,
			"byteLength":23328,
			"byteOffset":0,
			"target":34962
		},
		{
			"buffer":0,
			"byteLength":23328,
			"byteOffset":23328,
			"target":34962
		},
		{
			"buffer":0,
			"byteLength":15552,
			"byteOffset":46656,
			"target":34962
		},
		{
			"buffer":0,
			"byteLength":8472,
			"byteOffset":62208,
			"target":34963
		},
		{
			"buffer":0,
			"byteLength":1944,
			"byteOffset":70680,
			"target":34962
		},
		{
			"buffer":0,
			"byteLength":1944,
			"byteOffset":72624,
			"target":34962
		},
		{
			"buffer":0,
			"byteLength":1296,
			"byteOffset":74568,
			"target":34962
		},
		{
			"buffer":0,
			"byteLength":924,
			"byteOffset":75864,
			"target":34963
		},
		{
			"buffer":0,
			"byteLength":10464,
			"byteOffset":76788,
			"target":34962
		},
		{
			"buffer":0,
			"byteLength":10464,
			"byteOffset":87252,
			"target":34962
		},
		{
			"buffer":0,
			"byteLength":6976,
			"byteOffset":97716,
			"target":34962
		},
		{
			"buffer":0,
			"byteLength":2784,
			"byteOffset":104692,
			"target":34963
		},
		{
			"buffer":0,
			"byteLength":9191,
			"byteOffset":107476
		},
		{
			"buffer":0,
			"byteLength":384,
			"byteOffset":116668,
			"target":34962
		},
		{
			"buffer":0,
			"byteLength":384,
			"byteOffset":117052,
			"target":34962
		},
		{
			"buffer":0,
			"byteLength":256,
			"byteOffset":117436,
			"target":34962
		},
		{
			"buffer":0,
			"byteLength":180,
			"byteOffset":117692,
			"target":34963
		},
		{
			"buffer":0,
			"byteLength":14924,
			"byteOffset":117872
		},
		{
			"buffer":0,
			"byteLength":192,
			"byteOffset":132796,
			"target":34962
		},
		{
			"buffer":0,
			"byteLength":192,
			"byteOffset":132988,
			"target":34962
		},
		{
			"buffer":0,
			"byteLength":128,
			"byteOffset":133180,
			"target":34962
		},
		{
			"buffer":0,
			"byteLength":48,
			"byteOffset":133308,
			"target":34963
		}
	],
	"samplers":[
		{
			"magFilter":9729,
			"minFilter":9987
		}
	],
	"buffers":[
		{
			"byteLength":133356,
			"uri":"data:application/octet-stream;base64,"
		}
	]
}
