{
	"asset":{
		"generator":"Khronos glTF Blender I/O v3.6.27",
		"version":"2.0"
	},
	"extensionsUsed":[
		"KHR_materials_specular",
		"KHR_materials_ior",
		"KHR_materials_emissive_strength"
	],
	"scene":0,
	"scenes":[
		{
			"name":"Scene",
			"nodes":[
				0
			]
		}
	],
	"nodes":[
		{
			"mesh":0,
			"name":"Stage.001",
			"rotation":[
				-1,
				0,
				0,
				3.364366162099614e-15
			],
			"translation":[
				-0.0004908285918645561,
				1.7320780754089355,
				-0.5389175415039062
			]
		}
	],
	"materials":[
		{
			"doubleSided":true,
			"extensions":{
				"KHR_materials_specular":{
					"specularColorFactor":[
						0.9248294357096024,
						0.9248294357096024,
						0.9248294357096024
					]
				},
				"KHR_materials_ior":{
					"ior":1.4500000476837158
				}
			},
			"name":"Matte",
			"pbrMetallicRoughness":{
				"baseColorFactor":[
					0.021978730335831642,
					0.021978730335831642,
					0.021978730335831642,
					1
				],
				"metallicFactor":0,
				"roughnessFactor":0.38999998569488525
			}
		},
		{
			"doubleSided":true,
			"extensions":{
				"KHR_materials_specular":{
					"specularColorFactor":[
						2.371357614441398,
						2.371357614441398,
						2.371357614441398
					]
				},
				"KHR_materials_ior":{
					"ior":1.4500000476837158
				}
			},
			"name":"Gloss",
			"pbrMetallicRoughness":{
				"baseColorFactor":[
					0,
					0,
					0,
					1
				],
				"metallicFactor":0,
				"roughnessFactor":0
			}
		},
		{
			"doubleSided":true,
			"emissiveFactor":[
				1,
				1,
				1
			],
			"emissiveTexture":{
				"index":0
			},
			"extensions":{
				"KHR_materials_emissive_strength":{
					"emissiveStrength":25
				}
			},
			"name":"Pink_Emit",
			"pbrMetallicRoughness":{
				"baseColorTexture":{
					"index":1
				},
				"metallicFactor":0,
				"roughnessFactor":0.5
			}
		},
		{
			"doubleSided":true,
			"emissiveFactor":[
				1,
				1,
				1
			],
			"emissiveTexture":{
				"index":2
			},
			"extensions":{
				"KHR_materials_emissive_strength":{
					"emissiveStrength":5
				},
				"KHR_materials_specular":{
					"specularColorFactor":[
						2.371357614441398,
						2.371357614441398,
						2.371357614441398
					]
				},
				"KHR_materials_ior":{
					"ior":1.4500000476837158
				}
			},
			"name":"Gloss_M_Note",
			"pbrMetallicRoughness":{
				"baseColorFactor":[
					0,
					0,
					0,
					1
				],
				"metallicFactor":0,
				"roughnessFactor":0
			}
		},
		{
			"doubleSided":true,
			"extensions":{
				"KHR_materials_specular":{
					"specularColorFactor":[
						0.5140430611647385,
						0.5140430611647385,
						0.5140430611647385
					]
				},
				"KHR_materials_ior":{
					"ior":1.4500000476837158
				}
			},
			"name":"Matte_Dark",
			"pbrMetallicRoughness":{
				"baseColorFactor":[
					0,
					0,
					0,
					1
				],
				"metallicFactor":0,
				"roughnessFactor":0.38999998569488525
			}
		},
		{
			"doubleSided":true,
			"name":"Material.003",
			"pbrMetallicRoughness":{
				"baseColorTexture":{
					"index":3
				},
				"metallicFactor":0,
				"roughnessFactor":0.5
			}
		},
		{
			"doubleSided":true,
			"name":"Material.004",
			"pbrMetallicRoughness":{
				"baseColorTexture":{
					"index":4
				},
				"metallicFactor":0,
				"roughnessFactor":0.5
			}
		},
		{
			"doubleSided":true,
			"name":"Material.005",
			"pbrMetallicRoughness":{
				"baseColorFactor":[
					0.800000011920929,
					0.800000011920929,
					0.800000011920929,
					1
				],
				"metallicFactor":0,
				"roughnessFactor":0.5
			}
		},
		{
			"doubleSided":true,
			"name":"Material.006",
			"pbrMetallicRoughness":{
				"baseColorFactor":[
					0.1959875226020813,
					0.06769672781229019,
					0.02602110058069229,
					1
				],
				"metallicFactor":0,
				"roughnessFactor":0.5
			}
		}
	],
	"meshes":[
		{
			"name":"Cube.002",
			"primitives":[
				{
					"attributes":{
						"POSITION":0,
						"NORMAL":1,
						"TEXCOORD_0":2
					},
					"indices":3,
					"material":0
				},
				{
					"attributes":{
						"POSITION":4,
						"NORMAL":5,
						"TEXCOORD_0":6
					},
					"indices":7,
					"material":1
				},
				{
					"attributes":{
						"POSITION":8,
						"NORMAL":9,
						"TEXCOORD_0":10
					},
					"indices":11,
					"material":2
				},
				{
					"attributes":{
						"POSITION":12,
						"NORMAL":13,
						"TEXCOORD_0":14
					},
					"indices":15,
					"material":3
				},
				{
					"attributes":{
						"POSITION":16,
						"NORMAL":17,
						"TEXCOORD_0":18
					},
					"indices":19,
					"material":4
				},
				{
					"attributes":{
						"POSITION":20,
						"NORMAL":21,
						"TEXCOORD_0":22
					},
					"indices":23,
					"material":5
				},
				{
					"attributes":{
						"POSITION":24,
						"NORMAL":25,
						"TEXCOORD_0":26
					},
					"indices":27,
					"material":6
				},
				{
					"attributes":{
						"POSITION":28,
						"NORMAL":29,
						"TEXCOORD_0":30
					},
					"indices":31,
					"material":7
				},
				{
					"attributes":{
						"POSITION":32,
						"NORMAL":33,
						"TEXCOORD_0":34
					},
					"indices":35,
					"material":8
				}
			]
		}
	],
	"textures":[
		{
			"sampler":0,
			"source":0
		},
		{
			"sampler":0,
			"source":0
		},
		{
			"sampler":0,
			"source":1
		},
		{
			"sampler":0,
			"source":2
		},
		{
			"sampler":0,
			"source":3
		}
	],
	"images":[
		{
			"bufferView":12,
			"mimeType":"image/jpeg",
			"name":"clr"
		},
		{
			"bufferView":17,
			"mimeType":"image/png",
			"name":"hpypgl"
		},
		{
			"bufferView":26,
			"mimeType":"image/jpeg",
			"name":"sugar-cane-fresh-background-top-260nw-794514757"
		},
		{
			"bufferView":31,
			"mimeType":"image/jpeg",
			"name":"a3ec382d3f6ca4bd3309a0b37d67a52f"
		}
	],
	"accessors":[
		{
			"bufferView":0,
			"componentType":5126,
			"count":2172,
			"max":[
				7.4092912673950195,
				2.164548873901367,
				9.276363372802734
			],
			"min":[
				-7.4083099365234375,
				-4.028983116149902,
				-5.54123592376709
			],
			"type":"VEC3"
		},
		{
			"bufferView":1,
			"componentType":5126,
			"count":2172,
			"type":"VEC3"
		},
		{
			"bufferView":2,
			"componentType":5126,
			"count":2172,
			"type":"VEC2"
		},
		{
			"bufferView":3,
			"componentType":5123,
			"count":4638,
			"type":"SCALAR"
		},
		{
			"bufferView":4,
			"componentType":5126,
			"count":162,
			"max":[
				6.446147441864014,
				1.7387174367904663,
				8.313220977783203
			],
			"min":[
				-6.445166110992432,
				-2.1869101524353027,
				-4.578093528747559
			],
			"type":"VEC3"
		},
		{
			"bufferView":5,
			"componentType":5126,
			"count":162,
			"type":"VEC3"
		},
		{
			"bufferView":6,
			"componentType":5126,
			"count":162,
			"type":"VEC2"
		},
		{
			"bufferView":7,
			"componentType":5123,
			"count":462,
			"type":"SCALAR"
		},
		{
			"bufferView":8,
			"componentType":5126,
			"count":872,
			"max":[
				6.792248725891113,
				1.7387174367904663,
				8.313220977783203
			],
			"min":[
				-6.791267395019531,
				-3.9399428367614746,
				-4.578093528747559
			],
			"type":"VEC3"
		},
		{
			"bufferView":9,
			"componentType":5126,
			"count":872,
			"type":"VEC3"
		},
		{
			"bufferView":10,
			"componentType":5126,
			"count":872,
			"type":"VEC2"
		},
		{
			"bufferView":11,
			"componentType":5123,
			"count":1392,
			"type":"SCALAR"
		},
		{
			"bufferView":13,
			"componentType":5126,
			"count":32,
			"max":[
				5.41484260559082,
				1.738716959953308,
				7.281915664672852
			],
			"min":[
				-5.413861274719238,
				1.738716959953308,
				-3.546788215637207
			],
			"type":"VEC3"
		},
		{
			"bufferView":14,
			"componentType":5126,
			"count":32,
			"type":"VEC3"
		},
		{
			"bufferView":15,
			"componentType":5126,
			"count":32,
			"type":"VEC2"
		},
		{
			"bufferView":16,
			"componentType":5123,
			"count":90,
			"type":"SCALAR"
		},
		{
			"bufferView":18,
			"componentType":5126,
			"count":16,
			"max":[
				6.018390655517578,
				-2.256873607635498,
				0.39664673805236816
			],
			"min":[
				-6.017409324645996,
				-3.615151882171631,
				-0.12006354331970215
			],
			"type":"VEC3"
		},
		{
			"bufferView":19,
			"componentType":5126,
			"count":16,
			"type":"VEC3"
		},
		{
			"bufferView":20,
			"componentType":5126,
			"count":16,
			"type":"VEC2"
		},
		{
			"bufferView":21,
			"componentType":5123,
			"count":24,
			"type":"SCALAR"
		},
		{
			"bufferView":22,
			"componentType":5126,
			"count":6928,
			"max":[
				2.3025591373443604,
				0.7987697720527649,
				4.24208402633667
			],
			"min":[
				-2.570420265197754,
				-2.3633387088775635,
				-2.5423617362976074
			],
			"type":"VEC3"
		},
		{
			"bufferView":23,
			"componentType":5126,
			"count":6928,
			"type":"VEC3"
		},
		{
			"bufferView":24,
			"componentType":5126,
			"count":6928,
			"type":"VEC2"
		},
		{
			"bufferView":25,
			"componentType":5123,
			"count":6936,
			"type":"SCALAR"
		},
		{
			"bufferView":27,
			"componentType":5126,
			"count":2880,
			"max":[
				1.8378843069076538,
				1.1066186428070068,
				6.722504615783691
			],
			"min":[
				-2.062138080596924,
				-3.3034892082214355,
				1.4018850326538086
			],
			"type":"VEC3"
		},
		{
			"bufferView":28,
			"componentType":5126,
			"count":2880,
			"type":"VEC3"
		},
		{
			"bufferView":29,
			"componentType":5126,
			"count":2880,
			"type":"VEC2"
		},
		{
			"bufferView":30,
			"componentType":5123,
			"count":4320,
			"type":"SCALAR"
		},
		{
			"bufferView":32,
			"componentType":5126,
			"count":720,
			"max":[
				0.6054437160491943,
				-0.756689190864563,
				1.1638805866241455
			],
			"min":[
				-0.5721647143363953,
				-2.04695725440979,
				0.36243581771850586
			],
			"type":"VEC3"
		},
		{
			"bufferView":33,
			"componentType":5126,
			"count":720,
			"type":"VEC3"
		},
		{
			"bufferView":34,
			"componentType":5126,
			"count":720,
			"type":"VEC2"
		},
		{
			"bufferView":35,
			"componentType":5123,
			"count":720,
			"type":"SCALAR"
		},
		{
			"bufferView":36,
			"componentType":5126,
			"count":592,
			"max":[
				0.831917941570282,
				-0.663886547088623,
				1.1131134033203125
			],
			"min":[
				-0.8309362530708313,
				-2.3267407417297363,
				-0.14836406707763672
			],
			"type":"VEC3"
		},
		{
			"bufferView":37,
			"componentType":5126,
			"count":592,
			"type":"VEC3"
		},
		{
			"bufferView":38,
			"componentType":5126,
			"count":592,
			"type":"VEC2"
		},
		{
			"bufferView":39,
			"componentType":5123,
			"count":3060,
			"type":"SCALAR"
		}
	],
	"bufferViews":[
		{
			"buffer":0,
			"byteLength":26064,
			"byteOffset":0,
			"target":34962
		},
		{
			"buffer":0,
			"byteLength":26064,
			"byteOffset":26064,
			"target":34962
		},
		{
			"buffer":0,
			"byteLength":17376,
			"byteOffset":52128,
			"target":34962
		},
		{
			"buffer":0,
			"byteLength":9276,
			"byteOffset":69504,
			"target":34963
		},
		{
			"buffer":0,
			"byteLength":1944,
			"byteOffset":78780,
			"target":34962
		},
		{
			"buffer":0,
			"byteLength":1944,
			"byteOffset":80724,
			"target":34962
		},
		{
			"buffer":0,
			"byteLength":1296,
			"byteOffset":82668,
			"target":34962
		},
		{
			"buffer":0,
			"byteLength":924,
			"byteOffset":83964,
			"target":34963
		},
		{
			"buffer":0,
			"byteLength":10464,
			"byteOffset":84888,
			"target":34962
		},
		{
			"buffer":0,
			"byteLength":10464,
			"byteOffset":95352,
			"target":34962
		},
		{
			"buffer":0,
			"byteLength":6976,
			"byteOffset":105816,
			"target":34962
		},
		{
			"buffer":0,
			"byteLength":2784,
			"byteOffset":112792,
			"target":34963
		},
		{
			"buffer":0,
			"byteLength":9191,
			"byteOffset":115576
		},
		{
			"buffer":0,
			"byteLength":384,
			"byteOffset":124768,
			"target":34962
		},
		{
			"buffer":0,
			"byteLength":384,
			"byteOffset":125152,
			"target":34962
		},
		{
			"buffer":0,
			"byteLength":256,
			"byteOffset":125536,
			"target":34962
		},
		{
			"buffer":0,
			"byteLength":180,
			"byteOffset":125792,
			"target":34963
		},
		{
			"buffer":0,
			"byteLength":28758,
			"byteOffset":125972
		},
		{
			"buffer":0,
			"byteLength":192,
			"byteOffset":154732,
			"target":34962
		},
		{
			"buffer":0,
			"byteLength":192,
			"byteOffset":154924,
			"target":34962
		},
		{
			"buffer":0,
			"byteLength":128,
			"byteOffset":155116,
			"target":34962
		},
		{
			"buffer":0,
			"byteLength":48,
			"byteOffset":155244,
			"target":34963
		},
		{
			"buffer":0,
			"byteLength":83136,
			"byteOffset":155292,
			"target":34962
		},
		{
			"buffer":0,
			"byteLength":83136,
			"byteOffset":238428,
			"target":34962
		},
		{
			"buffer":0,
			"byteLength":55424,
			"byteOffset":321564,
			"target":34962
		},
		{
			"buffer":0,
			"byteLength":13872,
			"byteOffset":376988,
			"target":34963
		},
		{
			"buffer":0,
			"byteLength":31226,
			"byteOffset":390860
		},
		{
			"buffer":0,
			"byteLength":34560,
			"byteOffset":422088,
			"target":34962
		},
		{
			"buffer":0,
			"byteLength":34560,
			"byteOffset":456648,
			"target":34962
		},
		{
			"buffer":0,
			"byteLength":23040,
			"byteOffset":491208,
			"target":34962
		},
		{
			"buffer":0,
			"byteLength":8640,
			"byteOffset":514248,
			"target":34963
		},
		{
			"buffer":0,
			"byteLength":90548,
			"byteOffset":522888
		},
		{
			"buffer":0,
			"byteLength":8640,
			"byteOffset":613436,
			"target":34962
		},
		{
			"buffer":0,
			"byteLength":8640,
			"byteOffset":622076,
			"target":34962
		},
		{
			"buffer":0,
			"byteLength":5760,
			"byteOffset":630716,
			"target":34962
		},
		{
			"buffer":0,
			"byteLength":1440,
			"byteOffset":636476,
			"target":34963
		},
		{
			"buffer":0,
			"byteLength":7104,
			"byteOffset":637916,
			"target":34962
		},
		{
			"buffer":0,
			"byteLength":7104,
			"byteOffset":645020,
			"target":34962
		},
		{
			"buffer":0,
			"byteLength":4736,
			"byteOffset":652124,
			"target":34962
		},
		{
			"buffer":0,
			"byteLength":6120,
			"byteOffset":656860,
			"target":34963
		}
	],
	"samplers":[
		{
			"magFilter":9729,
			"minFilter":9987
		}
	],
	"buffers":[
		{
			"byteLength":662980,
			"uri":"data:application/octet-stream;base64,"
		}
	]
}
